# xmcd CD database file
#
# Track frame offsets:
#	150
#	11400
#	24430
#	38985
#	49092
#	58145
#	72317
#	84250
#	97570
#	112435
#	123295
#	137472
#	150045
#	162820
#	173437
#	186652
#	198695
#	211242
#	225462
#	236072
#	249332
#	262792
#	277317
#	290550
#	303610
#
# Disc length: 4345 seconds
#
# Revision: 6
# Processed by: cddbd v1.5.2PL0 Copyright (c) Steve Scherf et al.
# Submitted via: CDex 1.51
#
DISCID=5510f719
DTITLE=Jean Ferrat - Les Années Barclay
DYEAR=1992
DGENRE=Chanson Française
TTITLE0=La Fête Aux Copains
TTITLE1=Les Nomades
TTITLE2=L'homme A L'oreille Coupée
TTITLE3=Les Noctambules
TTITLE4=Ma Môme
TTITLE5=J'entends, J'entends
TTITLE6=Deux Enfants Au Soleil
TTITLE7=Quatre Cents Enfants Noirs
TTITLE8=Nuit Et Brouillard
TTITLE9=Nous Dormirons Ensemble
TTITLE10=La Montagne
TTITLE11=C'est Beau La Vie
TTITLE12=Les Belles Etrangères
TTITLE13=Au Bout De Mon Age
TTITLE14=Potemkine
TTITLE15=Je Ne Chante Pas Pour Passer Le Temps
TTITLE16=Le Sabre Et Le Goupillon
TTITLE17=Que Serai-Je Sans Toi
TTITLE18=On Ne Voit Pas Le Temps Passer
TTITLE19=En Groupe, En Ligue, En Procession
TTITLE20=C'est Toujours La Première Fois
TTITLE21=Maria
TTITLE22=C'est Si Peu Dire Que Je T'aime
TTITLE23=Cuba Si
TTITLE24=Un Jour Un Jour
EXTD=YEAR: 1992
EXTT0=Medley
EXTT1=Medley
EXTT2=Medley
EXTT3=Medley
EXTT4=Medley
EXTT5=Medley
EXTT6=Medley
EXTT7=Medley
EXTT8=Medley
EXTT9=Medley
EXTT10=Medley
EXTT11=Medley
EXTT12=Medley
EXTT13=Medley
EXTT14=Medley
EXTT15=Medley
EXTT16=Medley
EXTT17=Medley
EXTT18=Medley
EXTT19=Medley
EXTT20=Medley
EXTT21=Medley
EXTT22=Medley
EXTT23=Medley
EXTT24=Medley
PLAYORDER=
